<svg id="Слой_1" data-name="Слой 1" xmlns="http://www.w3.org/2000/svg" viewBox="0 0 485.07 67.45"><defs><style>.cls-1{fill:#3B82F6;}</style></defs><title>logo</title><path class="cls-1" d="M0,0H15.09V52.91h32.7v12.3H0Z"/><path class="cls-1" d="M106.76,53.1V65.21H56.27V0h49.28V12.11H71.27V26.27h30.27V38H71.27V53.1Z"/><path class="cls-1" d="M131.77,63.11a32.34,32.34,0,0,1-12.67-12,33.18,33.18,0,0,1-4.61-17.38,33.15,33.15,0,0,1,4.61-17.37,32.36,32.36,0,0,1,12.67-12A40.43,40.43,0,0,1,165.21,3a30.7,30.7,0,0,1,11.51,8.57l-9.69,9a20.81,20.81,0,0,0-16.39-7.65,21.79,21.79,0,0,0-10.81,2.66,18.86,18.86,0,0,0-7.41,7.41,21.74,21.74,0,0,0-2.65,10.8,21.78,21.78,0,0,0,2.65,10.81,18.86,18.86,0,0,0,7.41,7.41,21.78,21.78,0,0,0,10.81,2.65A20.7,20.7,0,0,0,167,46.86l9.69,8.94a30.17,30.17,0,0,1-11.55,8.66,38.31,38.31,0,0,1-15.37,3A37.43,37.43,0,0,1,131.77,63.11Z"/><path class="cls-1" d="M199.73,12.3H178.86V0h56.83V12.3H214.82V65.21H199.73Z"/><path class="cls-1" d="M256.14,63.07A32.49,32.49,0,0,1,243.37,51a33,33,0,0,1-4.61-17.28,33,33,0,0,1,4.61-17.28A32.54,32.54,0,0,1,256.14,4.38a40.34,40.34,0,0,1,36.56,0,32.63,32.63,0,0,1,17.42,29.34A32.66,32.66,0,0,1,292.7,63.07a40.34,40.34,0,0,1-36.56,0Zm28.74-11.13a19.07,19.07,0,0,0,7.31-7.41,21.78,21.78,0,0,0,2.65-10.81,21.74,21.74,0,0,0-2.65-10.8,19.07,19.07,0,0,0-7.31-7.41,21.8,21.8,0,0,0-20.87,0,19,19,0,0,0-7.32,7.41A21.74,21.74,0,0,0,254,33.72a21.78,21.78,0,0,0,2.65,10.81A19,19,0,0,0,264,51.94a21.87,21.87,0,0,0,20.87,0Z"/><path class="cls-1" d="M363,65.21,350.46,47.05H336.58V65.21H321.49V0h28.22a36.18,36.18,0,0,1,15.05,2.89,22.34,22.34,0,0,1,9.83,8.19A22.67,22.67,0,0,1,378,23.66a22.11,22.11,0,0,1-3.49,12.53,22.15,22.15,0,0,1-9.92,8.06l14.63,21Zm-3.82-50q-3.56-2.94-10.34-2.93h-12.3V35h12.3q6.8,0,10.34-3a10.36,10.36,0,0,0,3.54-8.39Q362.76,18.17,359.22,15.23Z"/><path class="cls-1" d="M390,0h15.09V65.21H390Z"/><path class="cls-1" d="M463.46,51.24H433.18l-5.77,14H411.94L441,0h14.91l29.15,65.21H469.24Zm-4.75-11.46-10.34-25L438,39.78Z"/></svg>