<svg id="Слой_1" data-name="Слой 1" xmlns="http://www.w3.org/2000/svg" viewBox="0 0 396 62.18"><defs><style>.cls-1{fill:#1d1d1b;}.cls-2{fill:#74a7da;}</style></defs><title>logo</title><path class="cls-1" d="M0,3H12.1l8.56,39c.19.9.32,1.62.4,2.17s.17,1.26.28,2.17h.35c.08-.91.16-1.63.24-2.17s.22-1.27.4-2.17L31.77,3H45.34l9.55,38.93a19,19,0,0,1,.42,2.23c.07.55.15,1.28.26,2.19h.32c.11-.91.2-1.64.3-2.19s.22-1.3.38-2.23L64.81,3h10.7L62.14,61.14H48.56l-9.83-39a24.72,24.72,0,0,1-.53-2.5c-.12-.75-.24-1.57-.34-2.47h-.32c-.08.9-.18,1.72-.3,2.47s-.3,1.57-.54,2.5l-9.79,39H13.65Z"/><path class="cls-1" d="M78.42,39.29q0-9.75,5.87-15.66a20.25,20.25,0,0,1,15-5.92q9.15,0,14.39,5.56t5.23,15.3v4.26H86.5V35.47h20.7v-.92a8.7,8.7,0,0,0-2.07-5.87,7.36,7.36,0,0,0-5.89-2.41,7.67,7.67,0,0,0-6.73,3.33q-2.31,3.31-2.31,9V41.2q0,5.58,2.49,8.88t7.35,3.3a10.15,10.15,0,0,0,5.81-1.67,15.32,15.32,0,0,0,4-3.82l8.32,5.45a15.32,15.32,0,0,1-6.73,6.33,23.63,23.63,0,0,1-11.19,2.51q-10.19,0-16-5.93T78.42,40.56Z"/><path class="cls-1" d="M126.43,0h11.82V23.25a13.22,13.22,0,0,1,5-3.8,16.53,16.53,0,0,1,6.86-1.34A15.71,15.71,0,0,1,163,24q4.76,5.88,4.76,15.27v1.27q0,9.48-4.78,15.35A15.73,15.73,0,0,1,150,61.74a17,17,0,0,1-7.24-1.55,9.79,9.79,0,0,1-4.66-3.94h-.24l-.24,4.7H126.43Zm14.91,51a8.37,8.37,0,0,0,5.59,1.84,7.31,7.31,0,0,0,6.55-3.23,15,15,0,0,0,2.13-8.4V38.73a15.16,15.16,0,0,0-2.11-8.4q-2.12-3.22-6.65-3.22a8.25,8.25,0,0,0-5.49,1.83,10.31,10.31,0,0,0-3.11,4.18V46.73A10.27,10.27,0,0,0,141.34,51Z"/><path class="cls-2" d="M171.53,3h46.69v9.27H201V61H188.77V12.26H171.53Z"/><path class="cls-2" d="M217.19,39.29q0-9.75,5.87-15.66a20.23,20.23,0,0,1,15-5.92q9.15,0,14.39,5.56t5.23,15.3v4.26h-32.4V35.47H246v-.92a8.7,8.7,0,0,0-2.07-5.87A7.36,7.36,0,0,0,238,26.27a7.67,7.67,0,0,0-6.73,3.33q-2.31,3.31-2.31,9V41.2q0,5.58,2.49,8.88a8.62,8.62,0,0,0,7.34,3.3,10.18,10.18,0,0,0,5.82-1.67,15.32,15.32,0,0,0,4-3.82l8.32,5.45a15.32,15.32,0,0,1-6.73,6.33A23.63,23.63,0,0,1,239,62.18q-10.19,0-16-5.93t-5.81-15.69Z"/><path class="cls-2" d="M268.52,38q5.43-3.51,13.63-3.55h8.13V32.13a6.86,6.86,0,0,0-1.46-4.54q-1.45-1.75-5.11-1.76t-5.24,1.44a4.66,4.66,0,0,0-1.53,3.54v.6H265.28v-.6q0-5.68,5.27-9.37t13.63-3.69q8.4,0,13.16,3.53c3.17,2.35,4.76,6,4.76,10.89V51.55a23.84,23.84,0,0,0,.48,4.86,16.61,16.61,0,0,0,1.23,3.9V61H292.19a11.4,11.4,0,0,1-.86-2.41,18.45,18.45,0,0,1-.5-2.89,10.45,10.45,0,0,1-4.66,4.2,18.08,18.08,0,0,1-8.59,1.85,16.25,16.25,0,0,1-10.31-3.26q-4.18-3.27-4.18-9.87Q263.09,41.52,268.52,38Zm8,14q1.59,1.71,5.1,1.71a8.54,8.54,0,0,0,6.19-2.37,7.63,7.63,0,0,0,2.45-5.67v-4h-6.49c-3,0-5.23.5-6.67,1.51A5,5,0,0,0,275,47.53,6.29,6.29,0,0,0,276.54,52Z"/><path class="cls-2" d="M310.42,39.29q0-9.95,5.85-15.76t15.48-5.82q9.17,0,14,4.58a15.66,15.66,0,0,1,5.11,10.83l.08.72H339.36v-.52a6.68,6.68,0,0,0-1.91-4.86c-1.28-1.3-3.2-1.95-5.78-1.95a7.82,7.82,0,0,0-6.84,3.29c-1.54,2.19-2.31,5.12-2.31,8.81v2.63q0,5.53,2.23,8.84c1.48,2.2,3.78,3.3,6.88,3.3,2.84,0,4.83-.69,6-2.09a7.34,7.34,0,0,0,1.71-4.79v-.44h11.54v.48a14.57,14.57,0,0,1-5,10.92q-5,4.68-14.14,4.68-9.63,0-15.48-5.81t-5.85-15.77Z"/><path class="cls-2" d="M358,0h11.82V24.48a14.85,14.85,0,0,1,5-4.58,15.2,15.2,0,0,1,7.68-1.79,13.36,13.36,0,0,1,9.73,3.76Q396,25.64,396,34.12V61H384.18V34.79c0-2.73-.61-4.68-1.83-5.83a6.85,6.85,0,0,0-4.9-1.73,7.32,7.32,0,0,0-4.71,1.53,9.62,9.62,0,0,0-3,4.36V61H358Z"/></svg>